# xmcd
#
# Track frame offsets: 
#        150
#        13278
#        25521
#        38966
#        51709
#        64075
#        77014
#        89798
#        102286
#        114084
#        126515
#        138852
#        150483
#        163796
#        177515
#        191729
#        205470
#        219986
#        233848
#        246900
#        261326
#        276259
#        291129
#        304754
#
# Disc length: 4246 seconds
#
# Revision: 0
# Processed by: cddbd v1.5.2PL0 Copyright (c) Steve Scherf et al.
# Submitted via: ExactAudioCopy v0.99pb5
#
DISCID=68109418
DTITLE=Various Artist - Gennet Old Time Music 1927-1929 disc 4
DYEAR=2010
DGENRE=Country
TTITLE0=Richmond Cotillion
TTITLE1=John Brown's Dream
TTITLE2=Merry Girl
TTITLE3=Yellow Rose of Texas
TTITLE4=I Know My Name Is There
TTITLE5=Are You Washed in the Blood of the Lamb
TTITLE6=Wandering Boy
TTITLE7=Take Me Back to the Sweet Sunny South
TTITLE8=When You Ask a Girl to Leave Her Happy Home
TTITLE9=Old Joe Clark
TTITLE10=Evening Star Waltz
TTITLE11=Home Sweet Home
TTITLE12=Last Days in Georgia
TTITLE13=Flop Eared Mule
TTITLE14=That Old Tiger Rag
TTITLE15=Favourite Two Step
TTITLE16=Careless Lover
TTITLE17=Mama Don't Allow Me No Low Down Hangin' Around18
TTITLE18=The Bully of the Town
TTITLE19=Snatch 'em Back Blues
TTITLE20=Bed Bugs Makin' Their Last Go Round
TTITLE21=All Night Long
TTITLE22=When the Snowflakes Fall Again
TTITLE23=Birmingham Jail
EXTD=
EXTT0=
EXTT1=
EXTT2=
EXTT3=
EXTT4=
EXTT5=
EXTT6=
EXTT7=
EXTT8=
EXTT9=
EXTT10=
EXTT11=
EXTT12=
EXTT13=
EXTT14=
EXTT15=
EXTT16=
EXTT17=
EXTT18=
EXTT19=
EXTT20=
EXTT21=
EXTT22=
EXTT23=
PLAYORDER=
